#!OML:ASF H:\MichaelJackson\Top Level 1\Subject 1\Session 1\male.ASF
:FULLY-SPECIFIED
:DEGREES
1053
root 5.34573 17.1606 9.36136 2.28105 9.54474 -4.01626
lowerback 0.989263 3.56737 -1.95694
upperback -0.755503 4.77624 2.88605
thorax -1.73739 2.43368 3.93014
lowerneck -4.1809 -7.46369 0.457939
upperneck 11.0681 -10.2376 1.41802
head 4.45581 -4.94862 -0.133712
rclavicle 1.91082e-014 8.54774e-015
rhumerus -39.2763 21.2095 -78.5583
rradius 109.984
rwrist -5.94664
rhand -32.4666 -34.2377
rfingers 7.12502
rthumb -5.69924 655.859
lclavicle 1.91082e-014 8.54774e-015
lhumerus -66.4524 -3.02652 87.7821
lradius 56.788
lwrist 17.3849
lhand 6.5265 9.2403
lfingers 7.12502
lthumb 31.8249 36.4812
rfemur -43.8384 -7.72894 8.34463
rtibia 99.6525
rfoot 38.3131 20.8657
rtoes 41.0832
lfemur -20.92 -0.156417 -19.1753
ltibia 34.0509
lfoot -6.31069 -15.5153
ltoes 49.9634
1054
root 5.33469 17.1857 9.37496 1.46271 10.116 -3.95776
lowerback 1.70193 3.30208 -2.09872
upperback -0.557592 4.40952 2.83666
thorax -1.90906 2.25014 3.93483
lowerneck -4.18262 -7.42243 0.467944
upperneck 10.7681 -10.1808 1.47162
head 4.34935 -4.92351 -0.106854
rclavicle -6.85186e-015 -3.39922e-014
rhumerus -40.0082 20.4983 -77.9146
rradius 108.774
rwrist -4.06444
rhand -31.1561 -33.2657
rfingers 7.12502
rthumb -4.43387 656.801
lclavicle -6.85186e-015 -3.39922e-014
lhumerus -65.9491 -3.68987 87.8074
lradius 56.7814
lwrist 16.8921
lhand 6.95981 9.01855
lfingers 7.12502
lthumb 32.2374 36.1766
rfemur -46.1694 -6.21644 6.31217
rtibia 104.315
rfoot 40.3479 19.4272
rtoes 42.6924
lfemur -19.6344 -0.240185 -19.2692
ltibia 33.1995
lfoot -5.91543 -15.7456
ltoes 49.5207
1055
root 5.32261 17.2135 9.38651 0.62412 10.7525 -4.00335
lowerback 2.43191 3.02528 -2.13295
upperback -0.352362 4.02893 2.81867
thorax -2.07556 2.05864 3.91826
lowerneck -4.19412 -7.38558 0.459424
upperneck 10.4788 -10.1255 1.49596
head 4.2484 -4.90098 -0.0874749
rclavicle 3.26069e-014 1.37161e-014
rhumerus -40.7761 19.8139 -77.264
rradius 107.7
rwrist -2.17637
rhand -29.832 -32.678
rfingers 7.12502
rthumb -3.15526 657.366
lclavicle 3.26069e-014 1.37161e-014
lhumerus -65.3016 -4.32491 87.7933
lradius 56.6735
lwrist 16.224
lhand 7.38316 8.80182
lfingers 7.12502
lthumb 32.6403 35.8772
rfemur -48.5264 -4.8186 4.33909
rtibia 108.544
rfoot 42.0681 17.6666
rtoes 44.3413
lfemur -18.4221 -0.366509 -19.2475
ltibia 32.465
lfoot -5.53174 -16.0188
ltoes 49.0405
1056
root 5.30807 17.2343 9.39616 -0.236061 11.4314 -4.13946
lowerback 3.18112 2.73585 -2.08063
upperback -0.138839 3.63477 2.83195
thorax -2.23962 1.85965 3.89227
lowerneck -4.20556 -7.34799 0.43509
upperneck 10.1805 -10.0649 1.49373
head 4.14387 -4.8777 -0.0737377
rclavicle -2.08662e-014 1.64991e-014
rhumerus -41.5566 19.1666 -76.6077
rradius 106.784
rwrist -0.409291
rhand -28.4704 -32.4299
rfingers 7.12502
rthumb -1.84025 657.598
lclavicle -2.08662e-014 1.64991e-014
lhumerus -64.5417 -4.89915 87.7425
lradius 56.5037
lwrist 15.4659
lhand 7.72985 8.58349
lfingers 7.12502
lthumb 32.9701 35.59
rfemur -50.9401 -3.55836 2.43548
rtibia 112.271
rfoot 43.414 15.4997
rtoes 45.8791
lfemur -17.2882 -0.523071 -19.1261
ltibia 31.8494
lfoot -5.17664 -16.3183
ltoes 48.5339
1057
root 5.29241 17.2536 9.40395 -1.11184 12.1317 -4.34345
lowerback 3.93929 2.42865 -1.97368
upperback 0.0890429 3.22095 2.87593
thorax -2.39147 1.65029 3.87563
lowerneck -4.2211 -7.29999 0.393424
upperneck 9.86044 -9.98642 1.4716
head 4.03248 -4.84731 -0.062425
rclavicle -1.10854e-014 -1.98785e-016
rhumerus -42.3056 18.5673 -75.9413
rradius 106.024
rwrist 1.18597
rhand -27.0524 -32.419
rfingers 7.12502
rthumb -0.470716 657.602
lclavicle -1.10854e-014 -1.98785e-016
lhumerus -63.698 -5.38274 87.6787
lradius 56.3134
lwrist 14.7123
lhand 7.88266 8.39675
lfingers 7.12502
lthumb 33.1155 35.3725
rfemur -53.3587 -2.44559 0.638771
rtibia 115.331
rfoot 44.3437 12.9234
rtoes 47.2813
lfemur -16.1944 -0.704978 -18.9392
ltibia 31.2947
lfoot -4.85991 -16.6145
ltoes 48.005
1058
root 5.27608 17.2723 9.40992 -2.00652 12.8207 -4.59829
lowerback 4.71725 2.11644 -1.82265
upperback 0.325681 2.80492 2.92949
thorax -2.54415 1.43954 3.85098
lowerneck -4.22737 -7.24654 0.370204
upperneck 9.51677 -9.90075 1.44121
head 3.90981 -4.81321 -0.0555226
rclavicle 4.12292e-014 2.3556e-014
rhumerus -43.0217 17.9691 -75.291
rradius 105.406
rwrist 2.60412
rhand -25.5764 -32.4693
rfingers 7.12502
rthumb 0.954884 657.553
lclavicle 4.12292e-014 2.3556e-014
lhumerus -62.8146 -5.82245 87.6205
lradius 56.1271
lwrist 14.0406
lhand 7.79552 8.21754
lfingers 7.12502
lthumb 33.0326 35.2109
rfemur -55.756 -1.44987 -0.992897
rtibia 117.601
rfoot 44.8367 10.0139
rtoes 48.6703
lfemur -15.1197 -0.900402 -18.7096
ltibia 30.7853
lfoot -4.60258 -16.8806
ltoes 47.4485
1059
root 5.26 17.291 9.41377 -2.90652 13.499 -4.86795
lowerback 5.50768 1.79223 -1.66573
upperback 0.571469 2.37594 2.98194
thorax -2.69392 1.2224 3.83019
lowerneck -4.22906 -7.18157 0.368279
upperneck 9.15358 -9.80164 1.41725
head 3.77912 -4.77146 -0.0488252
rclavicle -1.89467e-015 1.95803e-014
rhumerus -43.6754 17.3521 -74.6496
rradius 104.891
rwrist 3.97443
rhand -24.0142 -32.3942
rfingers 7.12502
rthumb 2.4636 657.64
lclavicle -1.89467e-015 1.95803e-014
lhumerus -61.9114 -6.21917 87.5901
lradius 55.9506
lwrist 13.4999
lhand 7.44874 8.03788
lfingers 7.12502
lthumb 32.7027 35.1003
rfemur -58.0814 -0.579699 -2.42016
rtibia 118.956
rfoot 44.8983 7.00647
rtoes 50.1322
lfemur -14.0353 -1.12729 -18.4834
ltibia 30.2514
lfoot -4.38208 -17.0871
ltoes 46.868
1060
root 5.24469 17.3106 9.41541 -3.81356 14.1515 -5.15038
lowerback 6.30923 1.4613 -1.51006
upperback 0.827671 1.94072 3.02935
thorax -2.83931 1.00228 3.81313
lowerneck -4.22972 -7.10454 0.395262
upperneck 8.78162 -9.69067 1.41607
head 3.64562 -4.72178 -0.0389428
rclavicle 2.80752e-014 -1.11319e-014
rhumerus -44.2595 16.6736 -74.0151
rradius 104.445
rwrist 5.46746
rhand -22.3044 -32.046
rfingers 7.12502
rthumb 4.11485 658.014
lclavicle 2.80752e-014 -1.11319e-014
lhumerus -61.003 -6.59755 87.6075
lradius 55.7858
lwrist 13.1171
lhand 6.89792 7.84739
lfingers 7.12502
lthumb 32.1785 35.0174
rfemur -60.2654 0.203837 -3.56157
rtibia 119.298
rfoot 44.5721 4.33676
rtoes 51.4764
lfemur -12.9199 -1.39684 -18.2631
ltibia 29.6587
lfoot -4.17795 -17.2133
ltoes 46.288
1061
root 5.23074 17.3315 9.41437 -4.72122 14.7658 -5.442
lowerback 7.12168 1.13139 -1.35731
upperback 1.08947 1.50941 3.06709
thorax -2.98571 0.784444 3.79515
lowerneck -4.23303 -7.01967 0.453003
upperneck 8.41391 -9.57447 1.44579
head 3.51506 -4.667 -0.0244906
rclavicle 6.19991e-014 1.98785e-014
rhumerus -44.7848 15.9087 -73.3857
rradius 104.039
rwrist 7.24554
rhand -20.4538 -31.3431
rfingers 7.12502
rthumb 5.90174 658.759
lclavicle 6.19991e-014 1.98785e-014
lhumerus -60.0941 -6.98126 87.6814
lradius 55.6236
lwrist 12.8907
lhand 6.23765 7.65759
lfingers 7.12502
lthumb 31.5497 34.9528
rfemur -62.2321 0.927999 -4.36778
rtibia 118.554
rfoot 43.9682 2.53451
rtoes 52.4041
lfemur -11.77 -1.71526 -18.0526
ltibia 28.9845
lfoot -3.96562 -17.2524
ltoes 45.7318
1062
root 5.2185 17.354 9.4103 -5.61527 15.3405 -5.73566
lowerback 7.93607 0.799567 -1.21918
upperback 1.35549 1.07732 3.09932
thorax -3.12932 0.56669 3.78789
lowerneck -4.26412 -6.92153 0.524273
upperneck 8.07181 -9.44542 1.51038
head 3.40073 -4.60342 -0.00274177
rclavicle 4.2279e-014 2.08724e-014
rhumerus -45.2452 15.0749 -72.7551
rradius 103.657
rwrist 9.43683
rhand -18.4851 -30.2754
rfingers 7.12502
rthumb 7.80211 659.889
lclavicle 4.2279e-014 2.08724e-014
lhumerus -59.1844 -7.35701 87.8142
lradius 55.4747
lwrist 12.7982
lhand 5.58321 7.49423
lfingers 7.12502
lthumb 30.9261 34.9098
rfemur -63.8952 1.58801 -4.83115
rtibia 116.686
rfoot 43.2285 2.06391
rtoes 52.5633
lfemur -10.6001 -2.08409 -17.857
ltibia 28.2257
lfoot -3.72129 -17.2171
ltoes 45.2303
1063
root 5.20823 17.3775 9.40281 -6.47746 15.847 -6.02015
lowerback 8.73996 0.480585 -1.10466
upperback 1.62199 0.662942 3.12687
thorax -3.26812 0.358361 3.7952
lowerneck -4.32307 -6.81129 0.604579
upperneck 7.75302 -9.30386 1.60313
head 3.30143 -4.53179 0.0249393
rclavicle -1.19422e-014 2.04003e-014
rhumerus -45.647 14.1777 -72.1214
rradius 103.295
rwrist 12.077
rhand -16.4681 -28.8898
rfingers 7.12502
rthumb 9.74857 661.356
lclavicle -1.19422e-014 2.04003e-014
lhumerus -58.2721 -7.72748 88.0038
lradius 55.3495
lwrist 12.8105
lhand 5.05623 7.38398
lfingers 7.12502
lthumb 30.4236 34.8937
rfemur -65.1917 2.19082 -4.98167
rtibia 113.689
rfoot 42.4384 2.94307
rtoes 51.8852
lfemur -9.43328 -2.47338 -17.6807
ltibia 27.3975
lfoot -3.43345 -17.1229
ltoes 44.8182
1064
root 5.1997 17.4007 9.39214 -7.28482 16.2572 -6.28939
lowerback 9.52098 0.185556 -1.01077
upperback 1.87948 0.2808 3.1491
thorax -3.40554 0.166738 3.81227
lowerneck -4.41516 -6.69064 0.675775
upperneck 7.46522 -9.15107 1.72488
head 3.22157 -4.45314 0.061385
rclavicle 8.57104e-015 8.92046e-015
rhumerus -46.0048 13.2364 -71.4979
rradius 102.97
rwrist 15.083
rhand -14.4884 -27.2922
rfingers 7.12502
rthumb 11.6582 663.052
lclavicle 8.57104e-015 8.92046e-015
lhumerus -57.3698 -8.09044 88.2397
lradius 55.2781
lwrist 12.8946
lhand 4.73352 7.34693
lfingers 7.12502
lthumb 30.1158 34.9132
rfemur -66.0828 2.71777 -4.84884
rtibia 109.6
rfoot 41.5628 5.02728
rtoes 50.3046
lfemur -8.3057 -2.8357 -17.5162
ltibia 26.5344
lfoot -3.10828 -17.0008
ltoes 44.5122
1065
root 5.19267 17.4216 9.37908 -8.00412 16.5423 -6.52167
lowerback 10.2496 -0.0712732 -0.951097
upperback 2.12042 -0.0525828 3.16194
thorax -3.53381 2.85466e-005 3.83904
lowerneck -4.52786 -6.56029 0.746148
upperneck 7.1913 -8.98624 1.85502
head 3.15105 -4.368 0.099751
rclavicle 5.96354e-015 3.77691e-015
rhumerus -46.3272 12.2738 -70.9057
rradius 102.709
rwrist 18.2614
rhand -12.6612 -25.6463
rfingers 7.12502
rthumb 13.4198 664.806
lclavicle 5.96354e-015 3.77691e-015
lhumerus -56.492 -8.4564 88.5204
lradius 55.2903
lwrist 13.0272
lhand 4.61835 7.34646
lfingers 7.12502
lthumb 30.0059 34.9327
rfemur -66.5785 3.13376 -4.47706
rtibia 104.497
rfoot 40.5152 7.97617
rtoes 47.912
lfemur -7.261 -3.10844 -17.3694
ltibia 25.6813
lfoot -2.76645 -16.8871
ltoes 44.3149
1066
root 5.18676 17.4382 9.365 -8.60574 16.6701 -6.70066
lowerback 10.8997 -0.276357 -0.930383
upperback 2.33504 -0.321175 3.15936
thorax -3.64961 -0.133884 3.86745
lowerneck -4.64602 -6.42211 0.824094
upperneck 6.92078 -8.81073 1.97741
head 3.08197 -4.27774 0.134395
rclavicle 4.06949e-014 8.94531e-016
rhumerus -46.6255 11.3132 -70.3752
rradius 102.541
rwrist 21.3338
rhand -11.0834 -24.1161
rfingers 7.12502
rthumb 14.9402 666.443
lclavicle 4.06949e-014 8.94531e-016
lhumerus -55.66 -8.84176 88.8437
lradius 55.4022
lwrist 13.2036
lhand 4.66531 7.35142
lfingers 7.12502
lthumb 30.0507 34.9295
rfemur -66.7216 3.41857 -3.87881
rtibia 98.4975
rfoot 39.1544 11.3576
rtoes 44.919
lfemur -6.33743 -3.22283 -17.2373
ltibia 24.8831
lfoot -2.43 -16.8149
ltoes 44.2524
1067
root 5.18218 17.45 9.35138 -9.06267 16.6221 -6.81071
lowerback 11.4331 -0.425622 -0.963474
upperback 2.52322 -0.522645 3.14503
thorax -3.73209 -0.234157 3.90657
lowerneck -4.77179 -6.27223 0.888852
upperneck 6.64969 -8.61766 2.08984
head 3.01428 -4.1796 0.168331
rclavicle 9.82742e-015 -6.65929e-015
rhumerus -46.8851 10.3934 -69.9226
rradius 102.487
rwrist 24.0179
rhand -9.80497 -22.8466
rfingers 7.12502
rthumb 16.1714 667.808
lclavicle 9.82742e-015 -6.65929e-015
lhumerus -54.8764 -9.23784 89.2135
lradius 55.6188
lwrist 13.3845
lhand 4.82706 7.37269
lfingers 7.12502
lthumb 30.205 34.9226
rfemur -66.5739 3.5546 -3.06022
rtibia 91.7638
rfoot 37.3469 14.7763
rtoes 41.6017
lfemur -5.63523 -3.13111 -17.1233
ltibia 24.325
lfoot -2.21396 -16.8067
ltoes 44.2923
